<?xml version="1.0" encoding="utf-8"?>
<!-- Uploaded to: SVG Repo, www.svgrepo.com, Generator: SVG Repo Mixer Tools -->
<svg width="800px" height="800px" viewBox="0 0 1024 1024" class="icon"  version="1.1" xmlns="http://www.w3.org/2000/svg"><path d="M320 768a21.333333 21.333333 0 0 0-21.333333-21.333333h-64a21.333333 21.333333 0 0 0-21.333334 21.333333v106.666667a21.333333 21.333333 0 0 0 21.333334 21.333333h64a21.333333 21.333333 0 0 0 21.333333-21.333333v-106.666667zM810.666667 768a21.333333 21.333333 0 0 0-21.333334-21.333333h-64a21.333333 21.333333 0 0 0-21.333333 21.333333v106.666667a21.333333 21.333333 0 0 0 21.333333 21.333333h64a21.333333 21.333333 0 0 0 21.333334-21.333333v-106.666667zM874.666667 448v64h-42.666667v42.666667h42.666667c20.693333 0 42.666667-14.954667 42.666666-42.666667v-64h-42.666666zM192 512H149.333333v-64H106.666667v64c0 27.712 21.973333 42.666667 42.666666 42.666667h42.666667v-42.666667z" fill="#37474F" /><path d="M832 277.333333V149.333333a21.333333 21.333333 0 0 0-21.333333-21.333333H213.333333a21.333333 21.333333 0 0 0-21.333333 21.333333v128h640z" fill="#B71C1C" /><path d="M938.666667 469.333333a21.333333 21.333333 0 0 1-21.333334 21.333334h-42.666666a21.333333 21.333333 0 0 1-21.333334-21.333334v-128a21.333333 21.333333 0 0 1 21.333334-21.333333h42.666666a21.333333 21.333333 0 0 1 21.333334 21.333333v128zM832 277.333333a42.666667 42.666667 0 0 0-42.666667-42.666666H234.666667a42.666667 42.666667 0 0 0-42.666667 42.666666v490.666667a42.666667 42.666667 0 0 0 42.666667 42.666667h554.666666a42.666667 42.666667 0 0 0 42.666667-42.666667V277.333333zM85.333333 469.333333a21.333333 21.333333 0 0 0 21.333334 21.333334h42.666666a21.333333 21.333333 0 0 0 21.333334-21.333334v-128a21.333333 21.333333 0 0 0-21.333334-21.333333H106.666667a21.333333 21.333333 0 0 0-21.333334 21.333333v128z" fill="#FF5722" /><path d="M341.333333 554.666667h341.333334v213.333333H341.333333z" fill="#37474F" /><path d="M789.333333 298.666667a21.333333 21.333333 0 0 0-21.333333-21.333334H256a21.333333 21.333333 0 0 0-21.333333 21.333334v192a21.333333 21.333333 0 0 0 21.333333 21.333333h512a21.333333 21.333333 0 0 0 21.333333-21.333333v-192z" fill="#455A64" /><path d="M341.333333 597.333333h341.333334v42.666667H341.333333zM341.333333 682.666667h341.333334v42.666666H341.333333z" fill="#546E7A" /><path d="M256 661.333333m-42.666667 0a42.666667 42.666667 0 1 0 85.333334 0 42.666667 42.666667 0 1 0-85.333334 0Z" fill="#FFFFFF" /><path d="M768 661.333333m-42.666667 0a42.666667 42.666667 0 1 0 85.333334 0 42.666667 42.666667 0 1 0-85.333334 0Z" fill="#FFFFFF" /></svg>