<svg width="150" height="48" viewBox="0 0 150 48" fill="none" xmlns="http://www.w3.org/2000/svg">
<path d="M9.62231 47.9975C9.23891 47.9975 8.86477 47.9926 8.48439 47.9841C7.69638 47.9738 6.91021 47.9054 6.13234 47.7794C5.40701 47.6548 4.70436 47.4231 4.04756 47.0919C3.39679 46.7634 2.80324 46.3327 2.28963 45.8162C1.7686 45.3058 1.33481 44.7139 1.00547 44.0638C0.672491 43.4095 0.442052 42.7082 0.322177 41.9843C0.192723 41.2065 0.122683 40.4199 0.112661 39.6315C0.104683 39.3669 0.0942383 38.4857 0.0942383 38.4857V9.49828C0.0942383 9.49828 0.105362 8.63068 0.112724 8.37578C0.12232 7.5886 0.191953 6.80329 0.32102 6.02664C0.441116 5.30074 0.671733 4.59741 1.00489 3.94098C1.33302 3.29137 1.7644 2.69898 2.2823 2.18678C2.79961 1.66971 3.39507 1.23677 4.04695 0.903746C4.70223 0.573578 5.40355 0.34349 6.12742 0.22119C6.90785 0.0939071 7.69674 0.0250918 8.48748 0.0153216L9.62292 0H138.943L140.092 0.0159364C140.875 0.0252212 141.657 0.0934226 142.43 0.21996C143.161 0.343794 143.87 0.575487 144.533 0.907422C145.839 1.57857 146.901 2.64038 147.572 3.94404C147.9 4.59594 148.127 5.29354 148.245 6.01316C148.376 6.79618 148.449 7.58767 148.464 8.3813C148.468 8.73667 148.468 9.11839 148.468 9.49828C148.478 9.96885 148.477 10.4167 148.477 10.8683V37.1304C148.477 37.5862 148.478 38.0311 148.468 38.4796C148.468 38.8876 148.468 39.2614 148.463 39.6462C148.448 40.4257 148.376 41.203 148.248 41.972C148.13 42.7012 147.901 43.4079 147.568 44.0676C147.236 44.7106 146.805 45.2974 146.29 45.8064C145.776 46.3257 145.181 46.7589 144.529 47.0895C143.868 47.4233 143.161 47.6558 142.43 47.7794C141.652 47.9061 140.866 47.9745 140.078 47.9841C139.71 47.9926 139.324 47.9975 138.949 47.9975L137.585 48L9.62231 47.9975Z" fill="black"/>
<path d="M30.0481 22.8295C30.0616 21.7862 30.3395 20.7632 30.8559 19.8558C31.3724 18.9483 32.1107 18.1859 33.002 17.6394C32.4358 16.833 31.6888 16.1693 30.8203 15.7011C29.9518 15.2329 28.9859 14.9731 27.9991 14.9423C25.8941 14.722 23.8535 16.1984 22.7809 16.1984C21.6875 16.1984 20.036 14.9642 18.2576 15.0007C17.1073 15.0378 15.9862 15.3713 15.0036 15.9689C14.021 16.5665 13.2104 17.4077 12.6507 18.4105C10.2264 22.5961 12.0347 28.7474 14.357 32.1306C15.5189 33.7873 16.8768 35.6379 18.6536 35.5723C20.3923 35.5004 21.0416 34.4667 23.1404 34.4667C25.2196 34.4667 25.8289 35.5723 27.6417 35.5305C29.5074 35.5003 30.6829 33.8665 31.804 32.1941C32.6388 31.0137 33.2812 29.709 33.7074 28.3285C32.6235 27.8713 31.6985 27.1061 31.0477 26.1282C30.397 25.1504 30.0493 24.0031 30.0481 22.8295Z" fill="white"/>
<path d="M26.6238 12.7173C27.641 11.4995 28.1422 9.93429 28.0208 8.354C26.4667 8.51678 25.0311 9.25748 24.0001 10.4285C23.496 11.0006 23.11 11.6661 22.864 12.3871C22.618 13.1081 22.5169 13.8703 22.5665 14.6303C23.3438 14.6382 24.1129 14.4702 24.8156 14.1389C25.5184 13.8075 26.1367 13.3214 26.6238 12.7173Z" fill="white"/>
<path d="M52.0262 31.3782H46.0928L44.6679 35.5738H42.1548L47.7748 20.0513H50.3858L56.0058 35.5738H53.4498L52.0262 31.3782ZM46.7073 29.4422H51.4105L49.092 22.6331H49.0271L46.7073 29.4422Z" fill="white"/>
<path d="M68.143 29.9159C68.143 33.4328 66.2554 35.6923 63.4068 35.6923C62.6853 35.7299 61.9676 35.5642 61.3361 35.214C60.7046 34.8638 60.1847 34.3434 59.8361 33.7123H59.7822V39.3178H57.4526V24.2567H59.7075V26.1391H59.7504C60.1151 25.511 60.6437 24.9932 61.28 24.6409C61.9164 24.2886 62.6366 24.1149 63.364 24.1383C66.2443 24.1383 68.143 26.4088 68.143 29.9159ZM65.7486 29.9159C65.7486 27.6247 64.5612 26.1183 62.7495 26.1183C60.9696 26.1183 59.7724 27.6564 59.7724 29.9159C59.7724 32.1962 60.9696 33.7233 62.7495 33.7233C64.5612 33.7233 65.7486 32.2279 65.7486 29.9159Z" fill="white"/>
<path d="M80.6342 29.9159C80.6342 33.4328 78.7466 35.6923 75.8981 35.6923C75.1765 35.7299 74.4588 35.5642 73.8273 35.214C73.1958 34.8638 72.676 34.3434 72.3273 33.7123H72.2734V39.3177H69.9438V24.2567H72.1987V26.139H72.2415C72.6062 25.511 73.1349 24.9932 73.7712 24.6409C74.4075 24.2886 75.1277 24.1149 75.8552 24.1383C78.7356 24.1383 80.6342 26.4088 80.6342 29.9159ZM78.2398 29.9159C78.2398 27.6247 77.0524 26.1183 75.2407 26.1183C73.4608 26.1183 72.2636 27.6564 72.2636 29.9159C72.2636 32.1962 73.4608 33.7233 75.2407 33.7233C77.0524 33.7233 78.2398 32.2279 78.2398 29.9159H78.2398Z" fill="white"/>
<path d="M88.8895 31.2488C89.0621 32.7882 90.5617 33.7988 92.6109 33.7988C94.5744 33.7988 95.987 32.7881 95.987 31.4002C95.987 30.1953 95.135 29.4739 93.1177 28.9795L91.1003 28.4949C88.242 27.8064 86.915 26.4734 86.915 24.3103C86.915 21.6321 89.2556 19.7925 92.5791 19.7925C95.8683 19.7925 98.1231 21.6321 98.199 24.3103H95.8475C95.7067 22.7612 94.4226 21.8262 92.546 21.8262C90.6694 21.8262 89.3853 22.7722 89.3853 24.1492C89.3853 25.2466 90.2054 25.8923 92.2118 26.3867L93.9268 26.8066C97.1205 27.5598 98.4475 28.8391 98.4475 31.1096C98.4475 34.0136 96.1278 35.8325 92.4382 35.8325C88.9862 35.8325 86.6555 34.0564 86.5049 31.2487L88.8895 31.2488Z" fill="white"/>
<path d="M103.475 21.5786V24.2568H105.633V26.0964H103.475V32.3355C103.475 33.3047 103.907 33.7564 104.856 33.7564C105.112 33.7519 105.368 33.734 105.622 33.7026V35.5312C105.196 35.6107 104.762 35.6467 104.328 35.6386C102.031 35.6386 101.134 34.778 101.134 32.5832V26.0964H99.4844V24.2568H101.134V21.5786H103.475Z" fill="white"/>
<path d="M106.883 29.916C106.883 26.3552 108.986 24.1177 112.266 24.1177C115.556 24.1177 117.65 26.3552 117.65 29.916C117.65 33.4866 115.567 35.7144 112.266 35.7144C108.965 35.7144 106.883 33.4866 106.883 29.916ZM115.276 29.916C115.276 27.4734 114.153 26.0317 112.266 26.0317C110.378 26.0317 109.257 27.4844 109.257 29.916C109.257 32.3684 110.378 33.7991 112.266 33.7991C114.153 33.7991 115.276 32.3684 115.276 29.916H115.276Z" fill="white"/>
<path d="M119.57 24.2566H121.792V26.1829H121.846C121.996 25.5813 122.349 25.0496 122.846 24.6772C123.344 24.3049 123.954 24.1145 124.575 24.1382C124.844 24.1373 125.112 24.1663 125.373 24.2249V26.3977C125.035 26.2945 124.681 26.247 124.327 26.2573C123.988 26.2437 123.651 26.3032 123.338 26.4318C123.025 26.5604 122.743 26.755 122.512 27.0024C122.282 27.2498 122.108 27.544 122.002 27.8648C121.896 28.1856 121.861 28.5255 121.899 28.8611V35.5737H119.57L119.57 24.2566Z" fill="white"/>
<path d="M136.114 32.25C135.801 34.3044 133.795 35.7144 131.228 35.7144C127.926 35.7144 125.877 33.5085 125.877 29.9697C125.877 26.4199 127.937 24.1177 131.13 24.1177C134.27 24.1177 136.244 26.2685 136.244 29.7V30.4959H128.229V30.6362C128.192 31.0527 128.244 31.4723 128.382 31.8671C128.52 32.2619 128.741 32.6229 129.03 32.9261C129.318 33.2293 129.668 33.4677 130.057 33.6256C130.445 33.7835 130.862 33.8572 131.281 33.8418C131.832 33.8932 132.384 33.7661 132.857 33.4793C133.329 33.1925 133.696 32.7613 133.902 32.25L136.114 32.25ZM128.24 28.8723H133.913C133.934 28.4978 133.877 28.1231 133.746 27.7715C133.615 27.42 133.412 27.0994 133.151 26.8297C132.889 26.5599 132.575 26.347 132.227 26.2043C131.879 26.0615 131.506 25.9919 131.13 26C130.75 25.9977 130.374 26.0704 130.023 26.2139C129.672 26.3573 129.353 26.5686 129.084 26.8357C128.816 27.1027 128.603 27.4202 128.458 27.7697C128.313 28.1193 128.239 28.494 128.24 28.8723V28.8723Z" fill="white"/>
<path d="M46.4155 8.36735C46.9039 8.3324 47.394 8.40598 47.8504 8.58277C48.3068 8.75956 48.7182 9.03516 49.0549 9.38969C49.3915 9.74422 49.6451 10.1688 49.7973 10.6329C49.9495 11.097 49.9965 11.589 49.9349 12.0734C49.9349 14.4562 48.6434 15.8259 46.4155 15.8259H43.7139V8.36735H46.4155ZM44.8756 14.7711H46.2858C46.6347 14.7919 46.984 14.7348 47.3081 14.6041C47.6321 14.4733 47.9229 14.2721 48.1592 14.0152C48.3955 13.7582 48.5713 13.4519 48.6739 13.1187C48.7765 12.7854 48.8033 12.4335 48.7524 12.0886C48.7996 11.7451 48.7701 11.3953 48.6659 11.0645C48.5617 10.7337 48.3855 10.4299 48.1497 10.175C47.914 9.9201 47.6246 9.72034 47.3024 9.59005C46.9801 9.45975 46.633 9.40215 46.2858 9.42136H44.8756V14.7711Z" fill="white"/>
<path d="M51.247 13.0093C51.2115 12.6394 51.2539 12.2662 51.3715 11.9136C51.4892 11.5611 51.6794 11.2369 51.93 10.9619C52.1807 10.6869 52.4862 10.4672 52.8269 10.3169C53.1677 10.1665 53.5362 10.0889 53.9088 10.0889C54.2815 10.0889 54.65 10.1665 54.9908 10.3169C55.3315 10.4672 55.637 10.6869 55.8876 10.9619C56.1383 11.2369 56.3285 11.5611 56.4461 11.9136C56.5638 12.2662 56.6062 12.6394 56.5707 13.0093C56.6069 13.3796 56.5649 13.7533 56.4476 14.1065C56.3303 14.4597 56.1402 14.7844 55.8895 15.0599C55.6388 15.3355 55.3331 15.5556 54.992 15.7063C54.6509 15.857 54.2819 15.9348 53.9088 15.9348C53.5358 15.9348 53.1668 15.857 52.8257 15.7063C52.4846 15.5556 52.1789 15.3355 51.9282 15.0599C51.6775 14.7844 51.4874 14.4597 51.3701 14.1065C51.2527 13.7533 51.2108 13.3796 51.247 13.0093ZM55.4249 13.0093C55.4249 11.7893 54.8753 11.0758 53.9107 11.0758C52.9424 11.0758 52.3977 11.7893 52.3977 13.0094C52.3977 14.2392 52.9424 14.9472 53.9107 14.9472C54.8753 14.9472 55.4249 14.2343 55.4249 13.0093H55.4249Z" fill="white"/>
<path d="M63.6474 15.8259H62.4919L61.3253 11.6804H61.2371L60.0754 15.8259H58.9309L57.375 10.1973H58.5049L59.516 14.4923H59.5993L60.7597 10.1973H61.8284L62.9889 14.4923H63.077L64.0832 10.1973H65.1972L63.6474 15.8259Z" fill="white"/>
<path d="M66.5059 10.1972H67.5782V11.0914H67.6614C67.8027 10.7702 68.0408 10.501 68.3428 10.3212C68.6447 10.1415 68.9954 10.0601 69.3458 10.0885C69.6205 10.068 69.8963 10.1093 70.1527 10.2094C70.4092 10.3095 70.6398 10.4659 70.8274 10.6669C71.015 10.868 71.1549 11.1086 71.2366 11.3708C71.3184 11.6331 71.3399 11.9104 71.2996 12.182V15.8258H70.1856V12.461C70.1856 11.5565 69.7914 11.1066 68.9676 11.1066C68.7811 11.098 68.595 11.1296 68.4219 11.1994C68.2489 11.2692 68.093 11.3755 67.965 11.5109C67.837 11.6464 67.7398 11.8079 67.6803 11.9843C67.6207 12.1607 67.6001 12.3479 67.6198 12.533V15.8259H66.5059L66.5059 10.1972Z" fill="white"/>
<path d="M73.0747 8H74.1887V15.8259H73.0747V8Z" fill="white"/>
<path d="M75.7372 13.009C75.7017 12.639 75.7442 12.2658 75.8618 11.9132C75.9795 11.5606 76.1697 11.2364 76.4204 10.9614C76.6711 10.6864 76.9766 10.4667 77.3174 10.3164C77.6582 10.166 78.0267 10.0884 78.3994 10.0884C78.772 10.0884 79.1405 10.166 79.4813 10.3164C79.8221 10.4667 80.1276 10.6864 80.3783 10.9614C80.629 11.2364 80.8192 11.5606 80.9369 11.9132C81.0545 12.2658 81.097 12.639 81.0615 13.009C81.0976 13.3792 81.0557 13.753 80.9383 14.1061C80.821 14.4593 80.6308 14.7841 80.3801 15.0596C80.1294 15.3351 79.8236 15.5552 79.4825 15.7059C79.1414 15.8566 78.7724 15.9344 78.3994 15.9344C78.0263 15.9344 77.6573 15.8566 77.3162 15.7059C76.9751 15.5552 76.6693 15.3351 76.4186 15.0596C76.1679 14.7841 75.9777 14.4593 75.8604 14.1061C75.743 13.753 75.7011 13.3792 75.7372 13.009ZM79.9151 13.009C79.9151 11.7889 79.3655 11.0754 78.4009 11.0754C77.4326 11.0754 76.8879 11.7889 76.8879 13.009C76.8879 14.2388 77.4326 14.9468 78.4009 14.9468C79.3655 14.9468 79.9151 14.2339 79.9151 13.009H79.9151Z" fill="white"/>
<path d="M82.2344 14.2344C82.2344 13.2212 82.9909 12.6371 84.3338 12.5541L85.8627 12.4662V11.9803C85.8627 11.3859 85.4685 11.0502 84.7071 11.0502C84.0853 11.0502 83.6544 11.2778 83.5307 11.6758H82.4523C82.5661 10.709 83.4781 10.0889 84.7585 10.0889C86.1736 10.0889 86.9718 10.7914 86.9718 11.9803V15.8262H85.8994V15.0352H85.8113C85.6324 15.3189 85.3812 15.5502 85.0833 15.7055C84.7855 15.8607 84.4516 15.9344 84.1159 15.9189C83.8789 15.9435 83.6394 15.9183 83.4128 15.8449C83.1862 15.7715 82.9776 15.6516 82.8003 15.4929C82.6231 15.3342 82.4811 15.1402 82.3836 14.9234C82.2862 14.7067 82.2353 14.4719 82.2344 14.2344ZM85.8627 13.7534V13.2828L84.4843 13.3707C83.707 13.4226 83.3544 13.6863 83.3544 14.1825C83.3544 14.6891 83.7951 14.9839 84.4011 14.9839C84.5787 15.0018 84.758 14.9839 84.9285 14.9313C85.099 14.8787 85.2571 14.7924 85.3935 14.6776C85.5299 14.5628 85.6417 14.4218 85.7223 14.2631C85.8029 14.1043 85.8506 13.931 85.8627 13.7534Z" fill="white"/>
<path d="M88.4355 13.0092C88.4355 11.2306 89.3524 10.1039 90.7785 10.1039C91.1313 10.0877 91.4814 10.1719 91.7879 10.3468C92.0944 10.5217 92.3447 10.7799 92.5095 11.0914H92.5927V8H93.7066V15.8259H92.6392V14.9366H92.5511C92.3736 15.246 92.1146 15.501 91.8021 15.6741C91.4897 15.8472 91.1357 15.9318 90.7785 15.9187C89.3426 15.9187 88.4355 14.792 88.4355 13.0092ZM89.5863 13.0092C89.5863 14.203 90.1506 14.9214 91.0944 14.9214C92.0333 14.9214 92.6135 14.1927 92.6135 13.0141C92.6135 11.841 92.0272 11.1018 91.0944 11.1018C90.1567 11.1018 89.5862 11.8251 89.5862 13.0092H89.5863Z" fill="white"/>
<path d="M98.3153 13.0093C98.2798 12.6394 98.3223 12.2662 98.4399 11.9136C98.5575 11.5611 98.7478 11.2369 98.9984 10.9619C99.249 10.6869 99.5545 10.4672 99.8953 10.3169C100.236 10.1665 100.605 10.0889 100.977 10.0889C101.35 10.0889 101.718 10.1665 102.059 10.3169C102.4 10.4672 102.705 10.6869 102.956 10.9619C103.207 11.2369 103.397 11.5611 103.514 11.9136C103.632 12.2662 103.675 12.6394 103.639 13.0093C103.675 13.3796 103.633 13.7533 103.516 14.1065C103.399 14.4597 103.209 14.7844 102.958 15.0599C102.707 15.3355 102.401 15.5556 102.06 15.7063C101.719 15.857 101.35 15.9348 100.977 15.9348C100.604 15.9348 100.235 15.857 99.8941 15.7063C99.553 15.5556 99.2472 15.3355 98.9965 15.0599C98.7458 14.7844 98.5557 14.4597 98.4384 14.1065C98.3211 13.7533 98.2792 13.3796 98.3153 13.0093ZM102.493 13.0093C102.493 11.7893 101.944 11.0758 100.979 11.0758C100.011 11.0758 99.466 11.7893 99.466 13.0094C99.466 14.2392 100.011 14.9472 100.979 14.9472C101.944 14.9472 102.493 14.2343 102.493 13.0093Z" fill="white"/>
<path d="M105.134 10.1972H106.206V11.0914H106.289C106.431 10.7702 106.669 10.501 106.971 10.3212C107.273 10.1415 107.623 10.0601 107.974 10.0885C108.248 10.068 108.524 10.1093 108.781 10.2094C109.037 10.3095 109.268 10.4659 109.455 10.6669C109.643 10.868 109.783 11.1086 109.865 11.3708C109.946 11.6331 109.968 11.9104 109.927 12.182V15.8258H108.814V12.461C108.814 11.5565 108.419 11.1066 107.596 11.1066C107.409 11.098 107.223 11.1296 107.05 11.1994C106.877 11.2692 106.721 11.3755 106.593 11.5109C106.465 11.6464 106.368 11.8079 106.308 11.9843C106.249 12.1607 106.228 12.3479 106.248 12.533V15.8259H105.134V10.1972Z" fill="white"/>
<path d="M116.222 8.7959V10.2229H117.445V11.1586H116.222V14.0529C116.222 14.6425 116.466 14.9006 117.02 14.9006C117.162 14.9002 117.304 14.8916 117.445 14.875V15.8003C117.245 15.836 117.042 15.855 116.839 15.857C115.6 15.857 115.107 15.4225 115.107 14.3373V11.1585H114.211V10.2228H115.107V8.7959H116.222Z" fill="white"/>
<path d="M118.967 8H120.071V11.1018H120.159C120.307 10.7777 120.552 10.5069 120.86 10.3265C121.168 10.1461 121.524 10.0647 121.88 10.0935C122.153 10.0787 122.427 10.1242 122.68 10.2267C122.934 10.3293 123.161 10.4864 123.347 10.6868C123.533 10.8872 123.672 11.126 123.754 11.3862C123.837 11.6464 123.861 11.9215 123.824 12.1919V15.8259H122.709V12.4659C122.709 11.5669 122.289 11.1116 121.502 11.1116C121.311 11.0959 121.118 11.1222 120.938 11.1885C120.758 11.2548 120.594 11.3596 120.459 11.4955C120.323 11.6314 120.219 11.7952 120.154 11.9754C120.089 12.1555 120.064 12.3477 120.081 12.5386V15.8259H118.967L118.967 8Z" fill="white"/>
<path d="M130.319 14.306C130.168 14.8204 129.84 15.2654 129.393 15.5631C128.946 15.8608 128.408 15.9922 127.874 15.9344C127.502 15.9442 127.132 15.8732 126.791 15.7263C126.449 15.5794 126.144 15.3601 125.896 15.0837C125.647 14.8072 125.463 14.4803 125.354 14.1255C125.245 13.7707 125.215 13.3966 125.266 13.0291C125.217 12.6605 125.247 12.2856 125.356 11.9298C125.464 11.5739 125.648 11.2455 125.895 10.9666C126.141 10.6878 126.445 10.4651 126.786 10.3136C127.127 10.1621 127.496 10.0853 127.869 10.0885C129.439 10.0885 130.387 11.1585 130.387 12.926V13.3136H126.401V13.3758C126.384 13.5824 126.41 13.7903 126.477 13.9862C126.545 14.1822 126.653 14.3618 126.795 14.5136C126.937 14.6655 127.108 14.7861 127.299 14.8679C127.49 14.9496 127.696 14.9906 127.904 14.9883C128.171 15.0202 128.441 14.9724 128.68 14.8509C128.919 14.7294 129.116 14.5397 129.247 14.306L130.319 14.306ZM126.401 12.492H129.252C129.266 12.3031 129.24 12.1134 129.176 11.935C129.113 11.7566 129.012 11.5935 128.881 11.4562C128.75 11.3188 128.592 11.2103 128.417 11.1376C128.241 11.0649 128.053 11.0296 127.863 11.0339C127.67 11.0315 127.479 11.0676 127.3 11.14C127.122 11.2124 126.96 11.3198 126.823 11.4556C126.687 11.5915 126.58 11.7532 126.507 11.9312C126.435 12.1092 126.399 12.2999 126.401 12.492H126.401Z" fill="white"/>
</svg>
